<svg xmlns="http://www.w3.org/2000/svg" style="shape-rendering:geometricPrecision;text-rendering:geometricPrecision;image-rendering:optimizeQuality;fill-rule:evenodd;clip-rule:evenodd" viewBox="0 0 100 80">
  <path style="opacity:.702" fill="#9ed6a1" d="M50.5 4.5h4c.69 3.99.857 7.99.5 12a11.529 11.529 0 0 1-4.5 3.5c1.266.31 2.433.81 3.5 1.5a138.434 138.434 0 0 1 3.5 14c8.905-.91 12.238 3.09 10 12h10v-22h3a121.87 121.87 0 0 0 1 22l1-.5a105.628 105.628 0 0 1 0-29l-1-.5a13.117 13.117 0 0 0-1 7h-3v-10h7c.047 20.03-.62 40.03-2 60h-7v-7h-8v7a1073.058 1073.058 0 0 0-36 0v-7h-8v7h-6a9.864 9.864 0 0 1 1-6 6.807 6.807 0 0 1 1.5 3 64.247 64.247 0 0 0 0-16c-1.163 15.986-1.996 15.986-2.5 0h-3v-41h7v33h10c-1.802-9.03 1.865-13.196 11-12.5-1.356-3.653-.356-6.653 3-9-1.459-3.084-.459-5.084 3-6a11.529 11.529 0 0 1-4.5-3.5 25.249 25.249 0 0 1 0-10c2.357.497 4.524-.17 6.5-2Zm-4 5c1.797 1.23 3.797 1.896 6 2 .658 4.177-1.008 5.677-5 4.5-.923-2.04-1.256-4.207-1-6.5Zm1 16c1.068-.934 2.401-1.268 4-1a43.33 43.33 0 0 1 3 11h-10c-.033-3.602 1.3-6.602 4-9-.124-.607-.457-.94-1-1Zm-12 13c9.34-.166 18.673 0 28 .5 1.144 6.752 1.311 13.586.5 20.5-3.73-2.298-7.563-2.298-11.5 0l-6-2c-3.663 2.014-7.33 2.18-11 .5-1.315-6.5-1.315-13 0-19.5Zm-12 17h8v9h-8v-9Zm44 0h8v9h-8v-9Zm-9 5c1.248.834 1.915 2.167 2 4l-.5 4c-2.04-.923-4.208-1.256-6.5-1-.483-4.013 1.184-6.346 5-7Zm-16 1h3v6a11.989 11.989 0 0 0-6 1 9.864 9.864 0 0 1-1-6c1.599.268 2.932-.066 4-1Zm6 0c2.116 1.588 2.449 3.588 1 6a9.864 9.864 0 0 1-1-6Z"/>
</svg>
