
<svg xmlns="http://www.w3.org/2000/svg" style="shape-rendering:geometricPrecision;text-rendering:geometricPrecision;image-rendering:optimizeQuality;fill-rule:evenodd;clip-rule:evenodd" viewBox="0 0 100 80">
  <path style="opacity:.703" fill="#9ed6a1" d="M32.5 5.5a18.436 18.436 0 0 1 6 .5A206.383 206.383 0 0 1 58 19.5c.769 2.6.602 5.1-.5 7.5a15.276 15.276 0 0 1 1.5 4.5 81.965 81.965 0 0 0 2-9c2.667-2.667 5.333-2.667 8 0 .218 2.926.718 5.76 1.5 8.5 9.229-.429 13.562 4.238 13 14 .41 4.082-.59 7.749-3 11 3.548 3.137 3.881 6.637 1 10.5a272.092 272.092 0 0 1-41.5 7l-6.5-.5a1667.853 1667.853 0 0 0-6.5-4.5c-2.516 1.273-5.016 1.273-7.5 0a672.1 672.1 0 0 1-4-7 44.072 44.072 0 0 0 3.5-7c2.618-1.238 5.285-1.238 8 0 1.833-.5 3-1.667 3.5-3.5a23.43 23.43 0 0 0-2-5.5c-2.633-.8-4.467-2.467-5.5-5-.273-2.893-1.107-5.56-2.5-8a4.938 4.938 0 0 1 1-2.5c-3.63-3.05-4.797-6.883-3.5-11.5 2.6-2.723 5.1-5.557 7.5-8.5 2.739-1.026 5.072-2.526 7-4.5Zm-1 37a6.845 6.845 0 0 1-4-1c-.448-3.602-1.782-6.769-4-9.5a11.074 11.074 0 0 1 2-3.5c-4.173-1.679-5.673-4.679-4.5-9 2.803-1.802 4.97-4.135 6.5-7a28.676 28.676 0 0 0 8-4c2.423.92 4.423 2.42 6 4.5a36.178 36.178 0 0 1-7 4 34.692 34.692 0 0 1-6.5 7.5 16.25 16.25 0 0 0 0 8 24.235 24.235 0 0 1 3.5 10Zm13-28c2.443.609 4.11 2.109 5 4.5 5.802.512 7.136 3.178 4 8a9.265 9.265 0 0 0 2 2.5c-2.926 1.422-5.426 3.422-7.5 6-.667-1.667-.667-3.333 0-5 1.88-2.027 3.046-4.36 3.5-7-3.213.664-5.38 2.664-6.5 6a32.459 32.459 0 0 0-3-7c-1.011-.837-2.178-1.17-3.5-1 .281 2.463 1.281 4.63 3 6.5-2.31.497-4.643.663-7 .5v3c6.343-1.437 9.843.896 10.5 7a66.778 66.778 0 0 0-5.5-2c-.929 1.189-1.262 2.522-1 4a11.989 11.989 0 0 1 6 1 261.8 261.8 0 0 1 2 7.5c-4.474 1.119-8.14-.048-11-3.5 1.482-2.21.982-3.876-1.5-5-.651-1.735-.485-3.402.5-5a19.894 19.894 0 0 0-3.5-4c-.667-2-.667-4 0-6 3.82-4.669 8.32-8.336 13.5-11Zm19 9c.996-.086 1.83.248 2.5 1a20.593 20.593 0 0 1-.5 9c.21 1.495.876 2.661 2 3.5-1.667.667-3.333.667-5 0 .928-.388 1.595-1.055 2-2a39.61 39.61 0 0 1-1-11.5Zm-10 10a4.932 4.932 0 0 1 3 .5 15.83 15.83 0 0 0-3.5 5.5 60.94 60.94 0 0 0-.5 11h-3a72.444 72.444 0 0 1 .5-12 27.258 27.258 0 0 1 3.5-5Zm20 1c.813-1.153 1.813-1.153 3 0 3.813 4.65 4.98 9.984 3.5 16a12.417 12.417 0 0 1-2.5 4 272.01 272.01 0 0 0-.5-14c-.424-2.525-1.59-4.525-3.5-6Zm-3 1c1.91 1.475 3.076 3.475 3.5 6 .607 4.037.44 8.037-.5 12a19.373 19.373 0 0 1-8-1c-1.333-3.667-1.333-7.333 0-11 3.88-.21 5.547-2.21 5-6Zm-12 1c.185 1.696 1.019 3.03 2.5 4 .667 4 .667 8 0 12-1.7-.906-3.533-1.24-5.5-1a60.94 60.94 0 0 1 .5-11c.608-1.566 1.441-2.9 2.5-4Zm-1 19h-3v12h3c-7.41 2.117-15.077 2.95-23 2.5-5.167-3.765-6.333-8.599-3.5-14.5a6.975 6.975 0 0 1 3.5-2.5c7.95-.669 15.616.165 23 2.5Zm0 0a159.622 159.622 0 0 1 20 2.5c2.973 1.224 3.64 3.224 2 6a108.092 108.092 0 0 1-22 3.5v-12Zm-39 5c2.747-.313 5.413.02 8 1l-4 1c-1.833-.085-3.166-.752-4-2Z"/>
  <path style="opacity:.521" fill="#9ed6a1" d="M36.5 55.5h4v12h-4v-12ZM45.5 55.5h4v12h-4v-12Z"/>
  <path style="opacity:.685" fill="#9ed6a1" d="M57.5 55.5v12h-3v-12h3Z"/>
  <path style="opacity:.634" fill="#9ed6a1" d="M63.5 57.5h3v8h-3v-8Z"/>
  <path style="opacity:.465" fill="#9ed6a1" d="M72.5 58.5h3v6c-3.944-.384-4.944-2.384-3-6Z"/>
</svg>