<?xml version="1.0" encoding="UTF-8"?>
<!DOCTYPE svg PUBLIC "-//W3C//DTD SVG 1.1//EN" "http://www.w3.org/Graphics/SVG/1.1/DTD/svg11.dtd">
<svg xmlns="http://www.w3.org/2000/svg" version="1.1" width="100px" height="80px" style="shape-rendering:geometricPrecision; text-rendering:geometricPrecision; image-rendering:optimizeQuality; fill-rule:evenodd; clip-rule:evenodd" xmlns:xlink="http://www.w3.org/1999/xlink">
<g><path style="opacity:0.67" fill="#9ed6a1" d="M 27.5,4.5 C 28.2389,4.36899 28.9056,4.53566 29.5,5C 30.0897,6.50949 30.7564,8.00949 31.5,9.5C 33.2303,10.0256 34.5637,11.0256 35.5,12.5C 34.3291,14.1693 32.9958,15.6693 31.5,17C 30.8524,18.4397 30.5191,19.9397 30.5,21.5C 27.0813,19.9133 23.4146,19.2467 19.5,19.5C 19.5111,17.4534 19.8444,15.4534 20.5,13.5C 19.6123,11.845 19.1123,10.1783 19,8.5C 21.0693,7.73622 23.236,7.23622 25.5,7C 26.3805,6.2917 27.0472,5.45837 27.5,4.5 Z M 27.5,8.5 C 28.0576,10.5934 29.3909,12.0934 31.5,13C 29.2769,13.6517 28.1102,15.1517 28,17.5C 26.8904,15.9632 25.3904,15.2965 23.5,15.5C 23.7135,13.8561 23.3802,12.3561 22.5,11C 24.6526,10.9005 26.3192,10.0672 27.5,8.5 Z"/></g>
<g><path style="opacity:0.69" fill="#9ed6a1" d="M 55.5,4.5 C 64.5284,7.82625 64.6951,11.8263 56,16.5C 53.7856,16.1543 52.2856,14.9876 51.5,13C 52.1809,9.80716 53.5143,6.97383 55.5,4.5 Z M 56.5,8.5 C 57.7562,8.46141 58.7562,8.96141 59.5,10C 54.7133,14.9439 53.7133,14.4439 56.5,8.5 Z"/></g>
<g><path style="opacity:0.684" fill="#9ed6a1" d="M 71.5,4.5 C 74.5126,6.49994 77.846,7.49994 81.5,7.5C 81.528,9.58236 80.8613,11.4157 79.5,13C 82.492,17.6764 81.3253,19.1764 76,17.5C 74.8455,18.7433 73.5122,19.7433 72,20.5C 70.5275,17.3827 68.6942,14.5494 66.5,12C 69.1769,10.1595 70.8435,7.65945 71.5,4.5 Z M 72.5,8.5 C 74.2554,9.07217 75.9221,9.9055 77.5,11C 76.1667,12 76.1667,13 77.5,14C 75.6711,14.2735 74.1711,15.1068 73,16.5C 72.7265,14.6711 71.8932,13.1711 70.5,12C 71.9733,11.2904 72.6399,10.1238 72.5,8.5 Z"/></g>
<g><path style="opacity:0.683" fill="#9ed6a1" d="M 40.5,8.5 C 43.6516,7.95855 46.1516,8.95855 48,11.5C 50.3841,18.5993 49.8841,25.4326 46.5,32C 47.0253,32.6924 47.6919,33.1924 48.5,33.5C 50.5,31.8333 52.5,30.1667 54.5,28.5C 55.5827,29.365 55.7494,30.365 55,31.5C 53.647,32.6853 52.4803,34.0186 51.5,35.5C 52.0347,37.1013 53.0347,37.6013 54.5,37C 58.6481,33.6863 62.6481,30.1863 66.5,26.5C 65.5,24.8333 64.1667,23.5 62.5,22.5C 61.3523,24.1487 60.019,25.6487 58.5,27C 57.365,27.7494 56.365,27.5827 55.5,26.5C 59.0169,18.1558 63.5169,17.4891 69,24.5C 69.6667,25.8333 69.6667,27.1667 69,28.5C 65.5,31.3333 62,34.1667 58.5,37C 56.6707,38.1133 55.8374,39.6133 56,41.5C 56.414,41.9574 56.914,42.2907 57.5,42.5C 63.7499,40.0089 70.0832,39.8423 76.5,42C 79.6886,43.5444 80.8553,46.0444 80,49.5C 78.8176,51.3569 77.151,52.3569 75,52.5C 70.6219,50.8068 66.1219,50.3068 61.5,51C 63.3538,54.7258 62.3538,57.3924 58.5,59C 47.4235,62.8032 36.4235,66.8032 25.5,71C 19.5069,72.6683 17.0069,70.5017 18,64.5C 22,53.1667 26,41.8333 30,30.5C 31.8789,26.8214 34.7122,25.8214 38.5,27.5C 39.7002,22.9213 39.3668,18.4213 37.5,14C 38.1242,11.9149 39.1242,10.0816 40.5,8.5 Z M 41.5,11.5 C 44.766,11.4326 46.266,13.0992 46,16.5C 46.9369,21.4033 46.2702,26.0699 44,30.5C 42.9212,24.8887 41.7545,19.2221 40.5,13.5C 40.8627,12.8165 41.1961,12.1499 41.5,11.5 Z M 34.5,29.5 C 46.9346,33.4342 55.268,41.6009 59.5,54C 58.3619,56.0451 56.6953,56.7117 54.5,56C 52.4788,51.7615 49.6455,48.2615 46,45.5C 45.5,45.8333 45,46.1667 44.5,46.5C 47.0446,49.8744 49.3779,53.3744 51.5,57C 50.9019,58.3012 49.9019,59.1345 48.5,59.5C 43.69,51.5233 37.3567,45.0233 29.5,40C 30.0465,39.0754 30.7132,38.2421 31.5,37.5C 35.2379,39.0762 38.5712,41.2429 41.5,44C 42.635,44.7494 43.635,44.5827 44.5,43.5C 40.9146,39.3678 36.5813,36.2011 31.5,34C 32.3862,32.3853 33.3862,30.8853 34.5,29.5 Z M 28.5,43.5 C 35.6209,47.4535 41.2876,52.9535 45.5,60C 43.2849,61.8142 40.9515,62.3142 38.5,61.5C 34.8333,57.1667 30.8333,53.1667 26.5,49.5C 27.3721,47.5504 28.0388,45.5504 28.5,43.5 Z M 62.5,43.5 C 66.9152,43.3054 71.2486,43.8054 75.5,45C 78.2867,46.9066 78.12,48.4066 75,49.5C 70.2995,47.979 65.4662,47.1456 60.5,47C 59.8333,46.3333 59.1667,45.6667 58.5,45C 60.0581,44.79 61.3915,44.29 62.5,43.5 Z M 25.5,53.5 C 29.5698,56.0604 33.2365,59.2271 36.5,63C 35.0696,64.4404 33.403,64.7737 31.5,64C 29.3333,61.8333 27.1667,59.6667 25,57.5C 24.4209,56.0715 24.5876,54.7382 25.5,53.5 Z M 22.5,60.5 C 25.2254,61.713 27.5588,63.5464 29.5,66C 26.5682,67.1449 23.5682,67.9782 20.5,68.5C 20.9628,65.779 21.6295,63.1123 22.5,60.5 Z"/></g>
<g><path style="opacity:0.654" fill="#9ed6a1" d="M 21.5,22.5 C 22.5832,22.5394 23.5832,22.8728 24.5,23.5C 26.0302,27.6691 26.3635,31.8358 25.5,36C 22.9977,37.4316 20.4977,37.5982 18,36.5C 15.701,32.8199 14.8676,28.9865 15.5,25C 17.7226,24.4338 19.7226,23.6005 21.5,22.5 Z M 19.5,26.5 C 20.5,26.5 21.5,26.5 22.5,26.5C 22.3184,28.5914 22.6518,30.5914 23.5,32.5C 22.7579,33.2868 21.9246,33.9535 21,34.5C 19.4558,32.5318 18.2891,30.3651 17.5,28C 18.4158,27.7216 19.0825,27.2216 19.5,26.5 Z"/></g>
<g><path style="opacity:0.679" fill="#9ed6a1" d="M 74.5,22.5 C 77.7766,22.2161 80.9433,22.5495 84,23.5C 84.812,27.6704 84.312,31.6704 82.5,35.5C 79.709,37.0398 77.209,36.7064 75,34.5C 73.8079,30.4468 73.6412,26.4468 74.5,22.5 Z M 76.5,25.5 C 78.5273,25.3379 80.5273,25.5045 82.5,26C 79.9827,35.9182 77.9827,35.7515 76.5,25.5 Z"/></g>
<g><path style="opacity:0.682" fill="#9ed6a1" d="M 74.5,53.5 C 77.7218,54.8466 80.8885,56.5132 84,58.5C 83.1384,61.6393 82.4717,64.9726 82,68.5C 80.119,69.3544 78.2857,69.0211 76.5,67.5C 71.5621,70.7044 69.8954,69.5377 71.5,64C 70.1007,62.9384 69.1007,61.605 68.5,60C 71.0832,58.4048 73.0832,56.2381 74.5,53.5 Z M 76.5,57.5 C 77.64,58.8014 78.9733,59.9681 80.5,61C 79.7734,62.3988 79.2734,63.8988 79,65.5C 77.2134,64.6569 75.3801,64.4902 73.5,65C 74.727,63.4126 74.3937,62.0793 72.5,61C 74.0931,60.0513 75.4264,58.8846 76.5,57.5 Z"/></g>
<g><path style="opacity:0.694" fill="#9ed6a1" d="M 56.5,61.5 C 60.6954,61.6808 64.1954,63.3475 67,66.5C 66.9122,69.6422 65.4122,72.1422 62.5,74C 61.5,74.6667 60.5,74.6667 59.5,74C 57.3056,71.3053 55.3056,68.472 53.5,65.5C 54.5244,64.1482 55.5244,62.8149 56.5,61.5 Z M 57.5,64.5 C 60.09,65.1283 62.4234,66.295 64.5,68C 63.3333,69.1667 62.1667,70.3333 61,71.5C 59.1207,69.4732 57.954,67.1398 57.5,64.5 Z"/></g>
</svg>
