<?xml version="1.0" encoding="UTF-8"?>
<!DOCTYPE svg PUBLIC "-//W3C//DTD SVG 1.1//EN" "http://www.w3.org/Graphics/SVG/1.1/DTD/svg11.dtd">
<svg xmlns="http://www.w3.org/2000/svg" version="1.1" width="100px" height="80px" style="shape-rendering:geometricPrecision; text-rendering:geometricPrecision; image-rendering:optimizeQuality; fill-rule:evenodd; clip-rule:evenodd" xmlns:xlink="http://www.w3.org/1999/xlink">
<g><path style="opacity:0.743" fill="#9ed6a1" d="M 31.5,-0.5 C 34.1667,-0.5 36.8333,-0.5 39.5,-0.5C 41.7025,3.11391 43.7025,3.11391 45.5,-0.5C 48.5,-0.5 51.5,-0.5 54.5,-0.5C 56.1667,3.5 57.8333,3.5 59.5,-0.5C 62.5,-0.5 65.5,-0.5 68.5,-0.5C 75.8374,7.14242 74.8374,13.4758 65.5,18.5C 66.6424,20.1168 67.309,21.9501 67.5,24C 66.2795,28.769 65.4461,33.6024 65,38.5C 64.0695,41.3616 62.4029,43.695 60,45.5C 59.5172,46.448 59.3505,47.448 59.5,48.5C 78.7936,50.0347 86.127,60.3681 81.5,79.5C 60.1667,79.5 38.8333,79.5 17.5,79.5C 13.4093,60.2742 21.076,49.9408 40.5,48.5C 37.8538,44.5412 35.6871,40.2078 34,35.5C 33.4065,31.6787 32.9065,27.8454 32.5,24C 32.6292,22.0194 33.2958,20.3528 34.5,19C 27.6417,16.4508 25.1417,11.6174 27,4.5C 28.025,2.31305 29.525,0.646381 31.5,-0.5 Z M 33.5,2.5 C 37.1981,2.59977 40.3647,3.9331 43,6.5C 45.0757,4.76687 47.4091,3.43353 50,2.5C 52.5909,3.43353 54.9243,4.76687 57,6.5C 58.8231,5.34881 60.6564,4.18215 62.5,3C 68.3589,2.86952 70.5256,5.70285 69,11.5C 67.5347,13.915 65.368,14.915 62.5,14.5C 62.5,16.1667 62.5,17.8333 62.5,19.5C 54.1667,19.5 45.8333,19.5 37.5,19.5C 37.5,17.8333 37.5,16.1667 37.5,14.5C 31.6704,14.8395 29.1704,12.1728 30,6.5C 30.6897,4.64977 31.8564,3.31643 33.5,2.5 Z M 37.5,28.5 C 45.8333,28.5 54.1667,28.5 62.5,28.5C 62.5552,42.9543 55.8886,47.7877 42.5,43C 38.164,39.1608 36.4973,34.3275 37.5,28.5 Z M 48.5,49.5 C 49.5,49.5 50.5,49.5 51.5,49.5C 50.5,52.1667 49.5,52.1667 48.5,49.5 Z M 41.5,51.5 C 42.8333,51.5 44.1667,51.5 45.5,51.5C 45.5,52.8333 45.5,54.1667 45.5,55.5C 47.9424,55.3537 48.6091,56.187 47.5,58C 43.7931,59.4023 40.1264,60.9023 36.5,62.5C 35.8333,67.1667 35.1667,71.8333 34.5,76.5C 33.5481,74.9547 33.2148,73.288 33.5,71.5C 32.1667,71.5 30.8333,71.5 29.5,71.5C 29.2865,73.1439 29.6198,74.6439 30.5,76C 27.1832,76.4983 23.8499,76.665 20.5,76.5C 19.962,70.5982 20.7953,64.9315 23,59.5C 24.5429,57.6217 26.3762,56.1217 28.5,55C 32.9989,53.961 37.3323,52.7943 41.5,51.5 Z M 54.5,51.5 C 62.3412,51.9153 69.5079,54.2487 76,58.5C 76.6667,59.8333 77.3333,61.1667 78,62.5C 78.1971,67.0855 78.6971,71.5855 79.5,76C 76.1832,76.4983 72.8499,76.665 69.5,76.5C 69.5,74.8333 69.5,73.1667 69.5,71.5C 68.5,71.5 67.5,71.5 66.5,71.5C 66.5,73.1667 66.5,74.8333 66.5,76.5C 57.1667,76.5 47.8333,76.5 38.5,76.5C 38.3347,72.8183 38.5014,69.1516 39,65.5C 42.7749,63.7402 46.6083,62.0735 50.5,60.5C 51.4519,58.9547 51.7852,57.288 51.5,55.5C 52.5,55.5 53.5,55.5 54.5,55.5C 54.5,54.1667 54.5,52.8333 54.5,51.5 Z"/></g>
<g><path style="opacity:0.616" fill="#9ed6a1" d="M 40.5,66.5 C 41.5,66.5 42.5,66.5 43.5,66.5C 43.5,67.5 43.5,68.5 43.5,69.5C 42.5,69.5 41.5,69.5 40.5,69.5C 40.5,68.5 40.5,67.5 40.5,66.5 Z"/></g>
<g><path style="opacity:0.612" fill="#9ed6a1" d="M 40.5,71.5 C 41.5,71.5 42.5,71.5 43.5,71.5C 43.5,72.5 43.5,73.5 43.5,74.5C 42.5,74.5 41.5,74.5 40.5,74.5C 40.5,73.5 40.5,72.5 40.5,71.5 Z"/></g>
</svg>
