<?xml version="1.0" encoding="UTF-8"?>
<!DOCTYPE svg PUBLIC "-//W3C//DTD SVG 1.1//EN" "http://www.w3.org/Graphics/SVG/1.1/DTD/svg11.dtd">
<svg xmlns="http://www.w3.org/2000/svg" version="1.1" width="100px" height="80px" style="shape-rendering:geometricPrecision; text-rendering:geometricPrecision; image-rendering:optimizeQuality; fill-rule:evenodd; clip-rule:evenodd" xmlns:xlink="http://www.w3.org/1999/xlink">
<g><path style="opacity:0.638" fill="#9ed6a1" d="M 24.5,4.5 C 26.8333,4.5 29.1667,4.5 31.5,4.5C 31.5,6.16667 31.5,7.83333 31.5,9.5C 29.0225,9.05078 27.0225,9.71745 25.5,11.5C 27.1491,13.6499 28.9824,15.6499 31,17.5C 31.6579,21.0252 30.4912,23.8586 27.5,26C 22.0482,25.7519 21.3815,23.7519 25.5,20C 18.0857,14.9717 17.7524,9.80504 24.5,4.5 Z"/></g>
<g><path style="opacity:0.654" fill="#9ed6a1" d="M 38.5,4.5 C 40.8333,4.5 43.1667,4.5 45.5,4.5C 45.4208,5.93047 45.7542,7.26381 46.5,8.5C 37.8422,9.39166 37.3422,12.0583 45,16.5C 46.4928,21.515 44.8261,24.8483 40,26.5C 38.2676,26.2664 37.4342,25.2664 37.5,23.5C 38.7323,21.9501 39.2323,20.2834 39,18.5C 33.2455,13.8189 33.0788,9.15223 38.5,4.5 Z"/></g>
<g><path style="opacity:0.646" fill="#9ed6a1" d="M 53.5,4.5 C 55.8333,4.5 58.1667,4.5 60.5,4.5C 60.5,6.16667 60.5,7.83333 60.5,9.5C 58.5,9.5 56.5,9.5 54.5,9.5C 54.3505,10.552 54.5172,11.552 55,12.5C 61.4668,16.5227 61.9668,21.0227 56.5,26C 51.0482,25.7519 50.3815,23.7519 54.5,20C 47.1482,14.893 46.8149,9.72637 53.5,4.5 Z"/></g>
<g><path style="opacity:0.684" fill="#9ed6a1" d="M 2.5,27.5 C 28.8354,27.3334 55.1688,27.5 81.5,28C 81.8683,31.3778 81.8683,34.8778 81.5,38.5C 87.386,37.3435 92.2193,39.0102 96,43.5C 97.6164,51.5577 94.2831,55.8911 86,56.5C 82.9912,55.9971 80.1578,54.9971 77.5,53.5C 72.2918,61.5207 64.9585,66.6874 55.5,69C 63.1594,69.4997 70.8261,69.6664 78.5,69.5C 78.5,71.1667 78.5,72.8333 78.5,74.5C 54.1667,74.5 29.8333,74.5 5.5,74.5C 5.5,72.8333 5.5,71.1667 5.5,69.5C 13.5069,69.6664 21.5069,69.4997 29.5,69C 13.9975,65.1639 5.16417,55.3306 3,39.5C 2.50115,35.5138 2.33449,31.5138 2.5,27.5 Z M 8.5,32.5 C 31.1765,32.167 53.8431,32.5003 76.5,33.5C 72.6167,60.3053 57.2834,70.472 30.5,64C 15.6777,58.8895 8.3444,48.3895 8.5,32.5 Z M 82.5,43.5 C 84.9201,43.2924 87.2534,43.6258 89.5,44.5C 91.4249,48.3686 90.2583,50.7019 86,51.5C 80.6277,50.4364 79.4611,47.7697 82.5,43.5 Z"/></g>
</svg>
